<svg xmlns="http://www.w3.org/2000/svg" xmlns:xlink="http://www.w3.org/1999/xlink" width="1410" zoomAndPan="magnify" viewBox="0 0 1057.5 404.99999" height="540" preserveAspectRatio="xMidYMid meet" version="1.0"><defs><g/><clipPath id="6529d7c536"><path d="M 1 0.09375 L 208 0.09375 L 208 281.210938 L 1 281.210938 Z M 1 0.09375 " clip-rule="nonzero"/></clipPath><clipPath id="cb2c72f830"><rect x="0" width="826" y="0" height="148"/></clipPath></defs><g clip-path="url(#6529d7c536)"><path fill="#ffffff" d="M 207.253906 118.730469 L 202.484375 76.570312 C 201.632812 69.183594 195.359375 63.5625 187.90625 63.5625 L 164.179688 63.5625 L 164.179688 51.535156 C 164.179688 23.300781 141.238281 0.355469 113.003906 0.355469 C 84.765625 0.355469 61.824219 23.300781 61.824219 51.535156 L 61.824219 63.5625 L 38.097656 63.5625 C 30.644531 63.5625 24.371094 69.183594 23.519531 76.570312 L 2.082031 264.75 C 1.035156 273.769531 8.09375 281.613281 17.179688 281.613281 L 25.15625 281.613281 C 58.097656 140.234375 163.660156 120.625 207.253906 118.730469 Z M 157.644531 78.921875 C 161.238281 78.921875 164.179688 81.863281 164.179688 85.460938 C 164.179688 89.054688 161.238281 91.996094 157.644531 91.996094 C 154.050781 91.996094 151.109375 89.054688 151.109375 85.460938 C 151.109375 81.863281 154.050781 78.921875 157.644531 78.921875 Z M 74.894531 51.601562 C 74.894531 30.621094 91.957031 13.496094 113.003906 13.496094 C 134.050781 13.496094 151.109375 30.621094 151.109375 51.601562 L 151.109375 63.628906 L 74.894531 63.628906 Z M 68.359375 78.921875 C 71.953125 78.921875 74.894531 81.863281 74.894531 85.460938 C 74.894531 89.054688 71.953125 91.996094 68.359375 91.996094 C 64.765625 91.996094 61.824219 89.054688 61.824219 85.460938 C 61.824219 81.863281 64.765625 78.921875 68.359375 78.921875 Z M 68.359375 78.921875 " fill-opacity="1" fill-rule="nonzero"/></g><g transform="matrix(1, 0, 0, 1, 78, 159)"><g clip-path="url(#cb2c72f830)"><g fill="#ffffff" fill-opacity="1"><g transform="translate(1.018107, 117.504481)"><g><path d="M 64.421875 2.34375 C 56.085938 2.34375 48.375 0.910156 41.28125 -1.953125 C 34.195312 -4.816406 28.019531 -8.828125 22.75 -13.984375 C 17.488281 -19.148438 13.394531 -25.195312 10.46875 -32.125 C 7.550781 -39.0625 6.09375 -46.597656 6.09375 -54.734375 C 6.09375 -62.859375 7.550781 -70.382812 10.46875 -77.3125 C 13.394531 -84.25 17.488281 -90.296875 22.75 -95.453125 C 28.019531 -100.617188 34.195312 -104.632812 41.28125 -107.5 C 48.375 -110.375 56.085938 -111.8125 64.421875 -111.8125 C 72.765625 -111.8125 80.476562 -110.375 87.5625 -107.5 C 94.65625 -104.632812 100.804688 -100.617188 106.015625 -95.453125 C 111.234375 -90.296875 115.300781 -84.25 118.21875 -77.3125 C 121.132812 -70.382812 122.59375 -62.859375 122.59375 -54.734375 C 122.59375 -46.597656 121.132812 -39.0625 118.21875 -32.125 C 115.300781 -25.195312 111.234375 -19.148438 106.015625 -13.984375 C 100.804688 -8.828125 94.65625 -4.816406 87.5625 -1.953125 C 80.476562 0.910156 72.765625 2.34375 64.421875 2.34375 Z M 64.421875 -20.015625 C 70.992188 -20.015625 76.859375 -21.523438 82.015625 -24.546875 C 87.179688 -27.566406 91.25 -31.679688 94.21875 -36.890625 C 97.1875 -42.109375 98.671875 -48.054688 98.671875 -54.734375 C 98.671875 -61.296875 97.1875 -67.207031 94.21875 -72.46875 C 91.25 -77.738281 87.179688 -81.882812 82.015625 -84.90625 C 76.859375 -87.9375 70.992188 -89.453125 64.421875 -89.453125 C 57.960938 -89.453125 52.125 -87.9375 46.90625 -84.90625 C 41.695312 -81.882812 37.582031 -77.738281 34.5625 -72.46875 C 31.539062 -67.207031 30.03125 -61.296875 30.03125 -54.734375 C 30.03125 -48.160156 31.539062 -42.238281 34.5625 -36.96875 C 37.582031 -31.707031 41.695312 -27.566406 46.90625 -24.546875 C 52.125 -21.523438 57.960938 -20.015625 64.421875 -20.015625 Z M 64.421875 -20.015625 "/></g></g></g><g fill="#ffffff" fill-opacity="1"><g transform="translate(129.692675, 117.504481)"><g><path d="M 54.109375 -84.90625 L 61.609375 -84.90625 L 61.609375 -63.328125 L 51.765625 -63.328125 C 45.296875 -63.328125 40.679688 -61.816406 37.921875 -58.796875 C 35.160156 -55.773438 33.78125 -50.820312 33.78125 -43.9375 L 33.78125 0 L 10.953125 0 L 10.953125 -84.4375 L 25.640625 -84.4375 L 29.71875 -74.125 C 35.445312 -81.3125 43.578125 -84.90625 54.109375 -84.90625 Z M 54.109375 -84.90625 "/></g></g></g><g fill="#ffffff" fill-opacity="1"><g transform="translate(193.326389, 117.504481)"><g><path d="M 73.03125 -114.9375 L 95.859375 -114.9375 L 95.859375 0 L 78.96875 0 L 76.3125 -7.03125 C 72.769531 -4.007812 68.753906 -1.664062 64.265625 0 C 59.785156 1.664062 54.992188 2.5 49.890625 2.5 C 41.335938 2.5 33.695312 0.546875 26.96875 -3.359375 C 20.25 -7.265625 14.984375 -12.582031 11.171875 -19.3125 C 7.367188 -26.039062 5.46875 -33.675781 5.46875 -42.21875 C 5.46875 -50.769531 7.367188 -58.40625 11.171875 -65.125 C 14.984375 -71.851562 20.25 -77.144531 26.96875 -81 C 33.695312 -84.851562 41.335938 -86.78125 49.890625 -86.78125 C 54.160156 -86.78125 58.25 -86.179688 62.15625 -84.984375 C 66.0625 -83.785156 69.6875 -82.09375 73.03125 -79.90625 Z M 51.609375 -19.078125 C 56.085938 -19.078125 60.046875 -20.09375 63.484375 -22.125 C 66.929688 -24.15625 69.671875 -26.914062 71.703125 -30.40625 C 73.734375 -33.90625 74.75 -37.84375 74.75 -42.21875 C 74.75 -46.59375 73.734375 -50.523438 71.703125 -54.015625 C 69.671875 -57.515625 66.929688 -60.28125 63.484375 -62.3125 C 60.046875 -64.34375 56.085938 -65.359375 51.609375 -65.359375 C 47.222656 -65.359375 43.3125 -64.34375 39.875 -62.3125 C 36.4375 -60.28125 33.695312 -57.515625 31.65625 -54.015625 C 29.625 -50.523438 28.609375 -46.59375 28.609375 -42.21875 C 28.609375 -37.84375 29.625 -33.90625 31.65625 -30.40625 C 33.695312 -26.914062 36.4375 -24.15625 39.875 -22.125 C 43.3125 -20.09375 47.222656 -19.078125 51.609375 -19.078125 Z M 51.609375 -19.078125 "/></g></g></g><g fill="#ffffff" fill-opacity="1"><g transform="translate(300.112213, 117.504481)"><g><path d="M 92.890625 -42.53125 C 92.890625 -40.34375 92.734375 -38.101562 92.421875 -35.8125 L 28.609375 -35.8125 C 29.554688 -30.070312 31.851562 -25.664062 35.5 -22.59375 C 39.144531 -19.519531 43.734375 -17.984375 49.265625 -17.984375 C 53.222656 -17.984375 56.765625 -18.84375 59.890625 -20.5625 C 63.015625 -22.28125 65.410156 -24.648438 67.078125 -27.671875 L 91.171875 -27.671875 C 88.035156 -18.503906 82.710938 -11.207031 75.203125 -5.78125 C 67.703125 -0.363281 59.054688 2.34375 49.265625 2.34375 C 40.921875 2.34375 33.4375 0.390625 26.8125 -3.515625 C 20.195312 -7.421875 14.984375 -12.738281 11.171875 -19.46875 C 7.367188 -26.195312 5.46875 -33.78125 5.46875 -42.21875 C 5.46875 -50.664062 7.367188 -58.25 11.171875 -64.96875 C 14.984375 -71.695312 20.195312 -77.015625 26.8125 -80.921875 C 33.4375 -84.828125 40.921875 -86.78125 49.265625 -86.78125 C 57.910156 -86.78125 65.515625 -84.773438 72.078125 -80.765625 C 78.648438 -76.753906 83.757812 -71.410156 87.40625 -64.734375 C 91.0625 -58.066406 92.890625 -50.664062 92.890625 -42.53125 Z M 49.265625 -67.390625 C 44.148438 -67.390625 39.847656 -65.984375 36.359375 -63.171875 C 32.867188 -60.359375 30.492188 -56.453125 29.234375 -51.453125 L 70.0625 -51.453125 C 66.71875 -62.078125 59.785156 -67.390625 49.265625 -67.390625 Z M 49.265625 -67.390625 "/></g></g></g><g fill="#ffffff" fill-opacity="1"><g transform="translate(398.298895, 117.504481)"><g><path d="M 54.109375 -84.90625 L 61.609375 -84.90625 L 61.609375 -63.328125 L 51.765625 -63.328125 C 45.296875 -63.328125 40.679688 -61.816406 37.921875 -58.796875 C 35.160156 -55.773438 33.78125 -50.820312 33.78125 -43.9375 L 33.78125 0 L 10.953125 0 L 10.953125 -84.4375 L 25.640625 -84.4375 L 29.71875 -74.125 C 35.445312 -81.3125 43.578125 -84.90625 54.109375 -84.90625 Z M 54.109375 -84.90625 "/></g></g></g><g fill="#ffffff" fill-opacity="1"><g transform="translate(461.932609, 117.504481)"><g><path d="M 77.875 -87.40625 L 36.28125 -87.40625 L 36.28125 -63.328125 L 73.8125 -63.328125 L 73.8125 -41.90625 L 36.28125 -41.90625 L 36.28125 0 L 12.515625 0 L 12.515625 -109.46875 L 77.875 -109.46875 Z M 77.875 -87.40625 "/></g></g></g><g fill="#ffffff" fill-opacity="1"><g transform="translate(545.578894, 117.504481)"><g><path d="M 10.953125 0 L 10.953125 -114.9375 L 33.78125 -114.9375 L 33.78125 0 Z M 10.953125 0 "/></g></g></g><g fill="#ffffff" fill-opacity="1"><g transform="translate(590.29449, 117.504481)"><g><path d="M 51.140625 2.34375 C 42.378906 2.34375 34.554688 0.390625 27.671875 -3.515625 C 20.796875 -7.421875 15.375 -12.738281 11.40625 -19.46875 C 7.445312 -26.195312 5.46875 -33.78125 5.46875 -42.21875 C 5.46875 -50.769531 7.445312 -58.40625 11.40625 -65.125 C 15.375 -71.851562 20.796875 -77.144531 27.671875 -81 C 34.554688 -84.851562 42.378906 -86.78125 51.140625 -86.78125 C 59.785156 -86.78125 67.546875 -84.851562 74.421875 -81 C 81.304688 -77.144531 86.726562 -71.851562 90.6875 -65.125 C 94.65625 -58.40625 96.640625 -50.769531 96.640625 -42.21875 C 96.640625 -33.78125 94.65625 -26.195312 90.6875 -19.46875 C 86.726562 -12.738281 81.304688 -7.421875 74.421875 -3.515625 C 67.546875 0.390625 59.785156 2.34375 51.140625 2.34375 Z M 51.140625 -19.078125 C 57.703125 -19.078125 63.066406 -21.210938 67.234375 -25.484375 C 71.410156 -29.765625 73.5 -35.34375 73.5 -42.21875 C 73.5 -49.101562 71.410156 -54.679688 67.234375 -58.953125 C 63.066406 -63.222656 57.703125 -65.359375 51.140625 -65.359375 C 44.460938 -65.359375 39.035156 -63.222656 34.859375 -58.953125 C 30.691406 -54.679688 28.609375 -49.101562 28.609375 -42.21875 C 28.609375 -35.34375 30.691406 -29.765625 34.859375 -25.484375 C 39.035156 -21.210938 44.460938 -19.078125 51.140625 -19.078125 Z M 51.140625 -19.078125 "/></g></g></g><g fill="#ffffff" fill-opacity="1"><g transform="translate(692.38986, 117.504481)"><g><path d="M 109 -84.4375 L 131.671875 -84.4375 L 103.984375 0 L 85.6875 0 L 66.453125 -43.625 L 47.6875 0 L 29.40625 0 L 1.40625 -84.4375 L 24.703125 -84.4375 L 41.28125 -34.09375 L 63.328125 -83.8125 L 69.75 -83.8125 L 92.421875 -33.9375 Z M 109 -84.4375 "/></g></g></g></g></g></svg>